<mxfile host="app.diagrams.net" modified="2024-04-22T00:10:45.353Z" agent="Mozilla/5.0 (Windows NT 10.0; Win64; x64) AppleWebKit/537.36 (KHTML, like Gecko) Chrome/123.0.0.0 Safari/537.36" etag="ZHMdJTiUmSjYQrC6vFXO" version="23.1.8" type="github">
  <diagram id="C5RBs43oDa-KdzZeNtuy" name="Page-1">
    <mxGraphModel dx="880" dy="434" grid="1" gridSize="10" guides="1" tooltips="1" connect="1" arrows="1" fold="1" page="1" pageScale="1" pageWidth="827" pageHeight="1169" math="0" shadow="0">
      <root>
        <mxCell id="WIyWlLk6GJQsqaUBKTNV-0" />
        <mxCell id="WIyWlLk6GJQsqaUBKTNV-1" parent="WIyWlLk6GJQsqaUBKTNV-0" />
        <mxCell id="7dhpuweHF3gbvXW2Dd7H-8" style="edgeStyle=orthogonalEdgeStyle;rounded=0;orthogonalLoop=1;jettySize=auto;html=1;entryX=0.5;entryY=0;entryDx=0;entryDy=0;" edge="1" parent="WIyWlLk6GJQsqaUBKTNV-1" source="7dhpuweHF3gbvXW2Dd7H-0" target="7dhpuweHF3gbvXW2Dd7H-2">
          <mxGeometry relative="1" as="geometry" />
        </mxCell>
        <mxCell id="7dhpuweHF3gbvXW2Dd7H-0" value="Inicio" style="strokeWidth=2;html=1;shape=mxgraph.flowchart.start_2;whiteSpace=wrap;" vertex="1" parent="WIyWlLk6GJQsqaUBKTNV-1">
          <mxGeometry x="390" y="110" width="40" height="40" as="geometry" />
        </mxCell>
        <mxCell id="7dhpuweHF3gbvXW2Dd7H-1" value="Finalizar" style="strokeWidth=2;html=1;shape=mxgraph.flowchart.start_2;whiteSpace=wrap;" vertex="1" parent="WIyWlLk6GJQsqaUBKTNV-1">
          <mxGeometry x="389" y="480" width="50" height="50" as="geometry" />
        </mxCell>
        <mxCell id="7dhpuweHF3gbvXW2Dd7H-9" style="edgeStyle=orthogonalEdgeStyle;rounded=0;orthogonalLoop=1;jettySize=auto;html=1;entryX=0.5;entryY=0;entryDx=0;entryDy=0;" edge="1" parent="WIyWlLk6GJQsqaUBKTNV-1" source="7dhpuweHF3gbvXW2Dd7H-2" target="7dhpuweHF3gbvXW2Dd7H-3">
          <mxGeometry relative="1" as="geometry" />
        </mxCell>
        <mxCell id="7dhpuweHF3gbvXW2Dd7H-2" value="Recopilaci칩n de datos de los procesos" style="rounded=1;whiteSpace=wrap;html=1;absoluteArcSize=1;arcSize=14;strokeWidth=2;" vertex="1" parent="WIyWlLk6GJQsqaUBKTNV-1">
          <mxGeometry x="360" y="180" width="100" height="50" as="geometry" />
        </mxCell>
        <mxCell id="7dhpuweHF3gbvXW2Dd7H-10" style="edgeStyle=orthogonalEdgeStyle;rounded=0;orthogonalLoop=1;jettySize=auto;html=1;entryX=0.5;entryY=0;entryDx=0;entryDy=0;" edge="1" parent="WIyWlLk6GJQsqaUBKTNV-1" source="7dhpuweHF3gbvXW2Dd7H-3" target="7dhpuweHF3gbvXW2Dd7H-4">
          <mxGeometry relative="1" as="geometry" />
        </mxCell>
        <mxCell id="7dhpuweHF3gbvXW2Dd7H-3" value="Generaci칩n de informes y graficos" style="rounded=1;whiteSpace=wrap;html=1;absoluteArcSize=1;arcSize=14;strokeWidth=2;" vertex="1" parent="WIyWlLk6GJQsqaUBKTNV-1">
          <mxGeometry x="360" y="260" width="100" height="50" as="geometry" />
        </mxCell>
        <mxCell id="7dhpuweHF3gbvXW2Dd7H-11" style="edgeStyle=orthogonalEdgeStyle;rounded=0;orthogonalLoop=1;jettySize=auto;html=1;exitX=0.5;exitY=1;exitDx=0;exitDy=0;entryX=0.5;entryY=0;entryDx=0;entryDy=0;" edge="1" parent="WIyWlLk6GJQsqaUBKTNV-1" source="7dhpuweHF3gbvXW2Dd7H-4" target="7dhpuweHF3gbvXW2Dd7H-5">
          <mxGeometry relative="1" as="geometry" />
        </mxCell>
        <mxCell id="7dhpuweHF3gbvXW2Dd7H-4" value="An치lisis de informes" style="rounded=1;whiteSpace=wrap;html=1;absoluteArcSize=1;arcSize=14;strokeWidth=2;" vertex="1" parent="WIyWlLk6GJQsqaUBKTNV-1">
          <mxGeometry x="360" y="340" width="100" height="50" as="geometry" />
        </mxCell>
        <mxCell id="7dhpuweHF3gbvXW2Dd7H-12" style="edgeStyle=orthogonalEdgeStyle;rounded=0;orthogonalLoop=1;jettySize=auto;html=1;exitX=0.5;exitY=1;exitDx=0;exitDy=0;" edge="1" parent="WIyWlLk6GJQsqaUBKTNV-1" source="7dhpuweHF3gbvXW2Dd7H-5" target="7dhpuweHF3gbvXW2Dd7H-1">
          <mxGeometry relative="1" as="geometry" />
        </mxCell>
        <mxCell id="7dhpuweHF3gbvXW2Dd7H-5" value="Toma de decisiones" style="rounded=1;whiteSpace=wrap;html=1;absoluteArcSize=1;arcSize=14;strokeWidth=2;" vertex="1" parent="WIyWlLk6GJQsqaUBKTNV-1">
          <mxGeometry x="364" y="410" width="100" height="40" as="geometry" />
        </mxCell>
        <mxCell id="7dhpuweHF3gbvXW2Dd7H-7" value="Informes y gr치ficos" style="strokeWidth=2;html=1;shape=mxgraph.flowchart.multi-document;whiteSpace=wrap;" vertex="1" parent="WIyWlLk6GJQsqaUBKTNV-1">
          <mxGeometry x="520" y="255" width="88" height="60" as="geometry" />
        </mxCell>
        <mxCell id="7dhpuweHF3gbvXW2Dd7H-13" style="edgeStyle=orthogonalEdgeStyle;rounded=0;orthogonalLoop=1;jettySize=auto;html=1;entryX=0;entryY=0.5;entryDx=0;entryDy=0;entryPerimeter=0;" edge="1" parent="WIyWlLk6GJQsqaUBKTNV-1" source="7dhpuweHF3gbvXW2Dd7H-3" target="7dhpuweHF3gbvXW2Dd7H-7">
          <mxGeometry relative="1" as="geometry" />
        </mxCell>
      </root>
    </mxGraphModel>
  </diagram>
</mxfile>
